# xmcd
#
# Track frame offsets: 
#        150
#        14585
#        30261
#        48166
#        59964
#        76225
#        94470
#        109113
#        123264
#        135767
#        148900
#        159475
#
# Disc length: 2355 seconds
#
# Revision: 0
# Processed by: cddbd v1.5.2PL0 Copyright (c) Steve Scherf et al.
# Submitted via: ExactAudioCopy v0.99pb3
#
DISCID=9d09310c
DTITLE=Jeff Bruce McGinn - Australian Bound
DYEAR=2006
DGENRE=Australian Country
TTITLE0=Australian Bound
TTITLE1=Living on an Island
TTITLE2=Gypsy in my soul
TTITLE3=Travelling down the road
TTITLE4=The Amazing Green Touring Wagon
TTITLE5=Coral Bay
TTITLE6=Coongan River
TTITLE7=Build my own world
TTITLE8=Myalup
TTITLE9=In the long run
TTITLE10=This old Guitar
TTITLE11=My sweet Lousie
EXTD=
EXTT0=
EXTT1=
EXTT2=
EXTT3=
EXTT4=
EXTT5=
EXTT6=
EXTT7=
EXTT8=
EXTT9=
EXTT10=
EXTT11=
PLAYORDER=
